<?xml version="1.0" encoding="utf-8" standalone="no"?>
<!DOCTYPE svg PUBLIC "-//W3C//DTD SVG 1.1//EN"
  "http://www.w3.org/Graphics/SVG/1.1/DTD/svg11.dtd">
<!-- Created with matplotlib (https://matplotlib.org/) -->
<svg height="265.995469pt" version="1.1" viewBox="0 0 594.368125 265.995469" width="594.368125pt" xmlns="http://www.w3.org/2000/svg" xmlns:xlink="http://www.w3.org/1999/xlink">
 <defs>
  <style type="text/css">
*{stroke-linecap:butt;stroke-linejoin:round;}
  </style>
 </defs>
 <g id="figure_1">
  <g id="patch_1">
   <path d="M 0 265.995469 
L 594.368125 265.995469 
L 594.368125 0 
L 0 0 
z
" style="fill:none;"/>
  </g>
  <g id="axes_1">
   <g id="patch_2">
    <path d="M 53.328125 228.439219 
L 388.128125 228.439219 
L 388.128125 10.999219 
L 53.328125 10.999219 
z
" style="fill:#ffffff;"/>
   </g>
   <g id="PolyCollection_1">
    <defs>
     <path d="M 86.808125 -244.12425 
L 86.808125 -59.30025 
L 92.957513 -59.30025 
L 99.106901 -59.30025 
L 105.256288 -59.30025 
L 111.405676 -59.30025 
L 117.555064 -59.30025 
L 123.704452 -59.30025 
L 129.853839 -59.30025 
L 136.003227 -59.30025 
L 142.152615 -59.30025 
L 148.302003 -59.30025 
L 154.45139 -59.30025 
L 160.600778 -59.30025 
L 166.750166 -59.30025 
L 172.899554 -59.30025 
L 179.048941 -59.30025 
L 185.198329 -59.30025 
L 191.347717 -59.30025 
L 197.497105 -59.30025 
L 203.646492 -59.30025 
L 209.79588 -59.30025 
L 215.945268 -59.30025 
L 222.094656 -59.30025 
L 228.244043 -59.30025 
L 234.393431 -59.30025 
L 240.542819 -59.30025 
L 246.692207 -59.30025 
L 252.841594 -59.30025 
L 258.990982 -59.30025 
L 265.14037 -59.30025 
L 271.289758 -59.30025 
L 277.439145 -59.30025 
L 283.588533 -59.30025 
L 289.737921 -59.30025 
L 295.887309 -59.30025 
L 302.036696 -59.30025 
L 308.186084 -59.30025 
L 314.335472 -59.30025 
L 320.48486 -59.30025 
L 326.634247 -59.30025 
L 332.783635 -59.30025 
L 338.933023 -59.30025 
L 345.082411 -59.30025 
L 351.231798 -59.30025 
L 351.231798 -62.073719 
L 351.231798 -62.073719 
L 345.082411 -67.065964 
L 338.933023 -72.058209 
L 332.783635 -77.050454 
L 326.634247 -82.042699 
L 320.48486 -87.034944 
L 314.335472 -92.027189 
L 308.186084 -97.019434 
L 302.036696 -102.011679 
L 295.887309 -107.003923 
L 289.737921 -111.996168 
L 283.588533 -116.988413 
L 277.439145 -121.980658 
L 271.289758 -126.972903 
L 265.14037 -131.965148 
L 258.990982 -136.957393 
L 252.841594 -141.949638 
L 246.692207 -146.941883 
L 240.542819 -151.934128 
L 234.393431 -156.926372 
L 228.244043 -161.918617 
L 222.094656 -166.910862 
L 215.945268 -171.903107 
L 209.79588 -176.895352 
L 203.646492 -181.887597 
L 197.497105 -186.879842 
L 191.347717 -191.872087 
L 185.198329 -196.864332 
L 179.048941 -201.856577 
L 172.899554 -206.848821 
L 166.750166 -211.841066 
L 160.600778 -216.833311 
L 154.45139 -221.825556 
L 148.302003 -224.15527 
L 142.152615 -226.152168 
L 136.003227 -228.149066 
L 129.853839 -230.145964 
L 123.704452 -232.142862 
L 117.555064 -234.13976 
L 111.405676 -236.136658 
L 105.256288 -238.133556 
L 99.106901 -240.130454 
L 92.957513 -242.127352 
L 86.808125 -244.12425 
z
" id="m9bfd7ae52c" style="stroke:#808080;stroke-opacity:0.5;"/>
    </defs>
    <g clip-path="url(#pebd5f748b8)">
     <use style="fill:#808080;fill-opacity:0.5;stroke:#808080;stroke-opacity:0.5;" x="0" xlink:href="#m9bfd7ae52c" y="265.995469"/>
    </g>
   </g>
   <g id="matplotlib.axis_1">
    <g id="xtick_1">
     <g id="line2d_1">
      <defs>
       <path d="M 0 0 
L 0 3.5 
" id="m5b4a5609f5" style="stroke:#000000;stroke-width:0.8;"/>
      </defs>
      <g>
       <use style="stroke:#000000;stroke-width:0.8;" x="53.328125" xlink:href="#m5b4a5609f5" y="228.439219"/>
      </g>
     </g>
     <g id="text_1">
      <!-- 0 -->
      <defs>
       <path d="M 31.78125 66.40625 
Q 24.171875 66.40625 20.328125 58.90625 
Q 16.5 51.421875 16.5 36.375 
Q 16.5 21.390625 20.328125 13.890625 
Q 24.171875 6.390625 31.78125 6.390625 
Q 39.453125 6.390625 43.28125 13.890625 
Q 47.125 21.390625 47.125 36.375 
Q 47.125 51.421875 43.28125 58.90625 
Q 39.453125 66.40625 31.78125 66.40625 
z
M 31.78125 74.21875 
Q 44.046875 74.21875 50.515625 64.515625 
Q 56.984375 54.828125 56.984375 36.375 
Q 56.984375 17.96875 50.515625 8.265625 
Q 44.046875 -1.421875 31.78125 -1.421875 
Q 19.53125 -1.421875 13.0625 8.265625 
Q 6.59375 17.96875 6.59375 36.375 
Q 6.59375 54.828125 13.0625 64.515625 
Q 19.53125 74.21875 31.78125 74.21875 
z
" id="DejaVuSans-48"/>
      </defs>
      <g transform="translate(50.146875 243.037656)scale(0.1 -0.1)">
       <use xlink:href="#DejaVuSans-48"/>
      </g>
     </g>
    </g>
    <g id="xtick_2">
     <g id="line2d_2">
      <g>
       <use style="stroke:#000000;stroke-width:0.8;" x="120.288125" xlink:href="#m5b4a5609f5" y="228.439219"/>
      </g>
     </g>
     <g id="text_2">
      <!-- 200 -->
      <defs>
       <path d="M 19.1875 8.296875 
L 53.609375 8.296875 
L 53.609375 0 
L 7.328125 0 
L 7.328125 8.296875 
Q 12.9375 14.109375 22.625 23.890625 
Q 32.328125 33.6875 34.8125 36.53125 
Q 39.546875 41.84375 41.421875 45.53125 
Q 43.3125 49.21875 43.3125 52.78125 
Q 43.3125 58.59375 39.234375 62.25 
Q 35.15625 65.921875 28.609375 65.921875 
Q 23.96875 65.921875 18.8125 64.3125 
Q 13.671875 62.703125 7.8125 59.421875 
L 7.8125 69.390625 
Q 13.765625 71.78125 18.9375 73 
Q 24.125 74.21875 28.421875 74.21875 
Q 39.75 74.21875 46.484375 68.546875 
Q 53.21875 62.890625 53.21875 53.421875 
Q 53.21875 48.921875 51.53125 44.890625 
Q 49.859375 40.875 45.40625 35.40625 
Q 44.1875 33.984375 37.640625 27.21875 
Q 31.109375 20.453125 19.1875 8.296875 
z
" id="DejaVuSans-50"/>
      </defs>
      <g transform="translate(110.744375 243.037656)scale(0.1 -0.1)">
       <use xlink:href="#DejaVuSans-50"/>
       <use x="63.623047" xlink:href="#DejaVuSans-48"/>
       <use x="127.246094" xlink:href="#DejaVuSans-48"/>
      </g>
     </g>
    </g>
    <g id="xtick_3">
     <g id="line2d_3">
      <g>
       <use style="stroke:#000000;stroke-width:0.8;" x="187.248125" xlink:href="#m5b4a5609f5" y="228.439219"/>
      </g>
     </g>
     <g id="text_3">
      <!-- 400 -->
      <defs>
       <path d="M 37.796875 64.3125 
L 12.890625 25.390625 
L 37.796875 25.390625 
z
M 35.203125 72.90625 
L 47.609375 72.90625 
L 47.609375 25.390625 
L 58.015625 25.390625 
L 58.015625 17.1875 
L 47.609375 17.1875 
L 47.609375 0 
L 37.796875 0 
L 37.796875 17.1875 
L 4.890625 17.1875 
L 4.890625 26.703125 
z
" id="DejaVuSans-52"/>
      </defs>
      <g transform="translate(177.704375 243.037656)scale(0.1 -0.1)">
       <use xlink:href="#DejaVuSans-52"/>
       <use x="63.623047" xlink:href="#DejaVuSans-48"/>
       <use x="127.246094" xlink:href="#DejaVuSans-48"/>
      </g>
     </g>
    </g>
    <g id="xtick_4">
     <g id="line2d_4">
      <g>
       <use style="stroke:#000000;stroke-width:0.8;" x="254.208125" xlink:href="#m5b4a5609f5" y="228.439219"/>
      </g>
     </g>
     <g id="text_4">
      <!-- 600 -->
      <defs>
       <path d="M 33.015625 40.375 
Q 26.375 40.375 22.484375 35.828125 
Q 18.609375 31.296875 18.609375 23.390625 
Q 18.609375 15.53125 22.484375 10.953125 
Q 26.375 6.390625 33.015625 6.390625 
Q 39.65625 6.390625 43.53125 10.953125 
Q 47.40625 15.53125 47.40625 23.390625 
Q 47.40625 31.296875 43.53125 35.828125 
Q 39.65625 40.375 33.015625 40.375 
z
M 52.59375 71.296875 
L 52.59375 62.3125 
Q 48.875 64.0625 45.09375 64.984375 
Q 41.3125 65.921875 37.59375 65.921875 
Q 27.828125 65.921875 22.671875 59.328125 
Q 17.53125 52.734375 16.796875 39.40625 
Q 19.671875 43.65625 24.015625 45.921875 
Q 28.375 48.1875 33.59375 48.1875 
Q 44.578125 48.1875 50.953125 41.515625 
Q 57.328125 34.859375 57.328125 23.390625 
Q 57.328125 12.15625 50.6875 5.359375 
Q 44.046875 -1.421875 33.015625 -1.421875 
Q 20.359375 -1.421875 13.671875 8.265625 
Q 6.984375 17.96875 6.984375 36.375 
Q 6.984375 53.65625 15.1875 63.9375 
Q 23.390625 74.21875 37.203125 74.21875 
Q 40.921875 74.21875 44.703125 73.484375 
Q 48.484375 72.75 52.59375 71.296875 
z
" id="DejaVuSans-54"/>
      </defs>
      <g transform="translate(244.664375 243.037656)scale(0.1 -0.1)">
       <use xlink:href="#DejaVuSans-54"/>
       <use x="63.623047" xlink:href="#DejaVuSans-48"/>
       <use x="127.246094" xlink:href="#DejaVuSans-48"/>
      </g>
     </g>
    </g>
    <g id="xtick_5">
     <g id="line2d_5">
      <g>
       <use style="stroke:#000000;stroke-width:0.8;" x="321.168125" xlink:href="#m5b4a5609f5" y="228.439219"/>
      </g>
     </g>
     <g id="text_5">
      <!-- 800 -->
      <defs>
       <path d="M 31.78125 34.625 
Q 24.75 34.625 20.71875 30.859375 
Q 16.703125 27.09375 16.703125 20.515625 
Q 16.703125 13.921875 20.71875 10.15625 
Q 24.75 6.390625 31.78125 6.390625 
Q 38.8125 6.390625 42.859375 10.171875 
Q 46.921875 13.96875 46.921875 20.515625 
Q 46.921875 27.09375 42.890625 30.859375 
Q 38.875 34.625 31.78125 34.625 
z
M 21.921875 38.8125 
Q 15.578125 40.375 12.03125 44.71875 
Q 8.5 49.078125 8.5 55.328125 
Q 8.5 64.0625 14.71875 69.140625 
Q 20.953125 74.21875 31.78125 74.21875 
Q 42.671875 74.21875 48.875 69.140625 
Q 55.078125 64.0625 55.078125 55.328125 
Q 55.078125 49.078125 51.53125 44.71875 
Q 48 40.375 41.703125 38.8125 
Q 48.828125 37.15625 52.796875 32.3125 
Q 56.78125 27.484375 56.78125 20.515625 
Q 56.78125 9.90625 50.3125 4.234375 
Q 43.84375 -1.421875 31.78125 -1.421875 
Q 19.734375 -1.421875 13.25 4.234375 
Q 6.78125 9.90625 6.78125 20.515625 
Q 6.78125 27.484375 10.78125 32.3125 
Q 14.796875 37.15625 21.921875 38.8125 
z
M 18.3125 54.390625 
Q 18.3125 48.734375 21.84375 45.5625 
Q 25.390625 42.390625 31.78125 42.390625 
Q 38.140625 42.390625 41.71875 45.5625 
Q 45.3125 48.734375 45.3125 54.390625 
Q 45.3125 60.0625 41.71875 63.234375 
Q 38.140625 66.40625 31.78125 66.40625 
Q 25.390625 66.40625 21.84375 63.234375 
Q 18.3125 60.0625 18.3125 54.390625 
z
" id="DejaVuSans-56"/>
      </defs>
      <g transform="translate(311.624375 243.037656)scale(0.1 -0.1)">
       <use xlink:href="#DejaVuSans-56"/>
       <use x="63.623047" xlink:href="#DejaVuSans-48"/>
       <use x="127.246094" xlink:href="#DejaVuSans-48"/>
      </g>
     </g>
    </g>
    <g id="xtick_6">
     <g id="line2d_6">
      <g>
       <use style="stroke:#000000;stroke-width:0.8;" x="388.128125" xlink:href="#m5b4a5609f5" y="228.439219"/>
      </g>
     </g>
     <g id="text_6">
      <!-- 1000 -->
      <defs>
       <path d="M 12.40625 8.296875 
L 28.515625 8.296875 
L 28.515625 63.921875 
L 10.984375 60.40625 
L 10.984375 69.390625 
L 28.421875 72.90625 
L 38.28125 72.90625 
L 38.28125 8.296875 
L 54.390625 8.296875 
L 54.390625 0 
L 12.40625 0 
z
" id="DejaVuSans-49"/>
      </defs>
      <g transform="translate(375.403125 243.037656)scale(0.1 -0.1)">
       <use xlink:href="#DejaVuSans-49"/>
       <use x="63.623047" xlink:href="#DejaVuSans-48"/>
       <use x="127.246094" xlink:href="#DejaVuSans-48"/>
       <use x="190.869141" xlink:href="#DejaVuSans-48"/>
      </g>
     </g>
    </g>
    <g id="text_7">
     <!-- $desk$ -->
     <defs>
      <path d="M 41.796875 8.203125 
Q 38.1875 3.46875 33.25 1.015625 
Q 28.328125 -1.421875 22.3125 -1.421875 
Q 14.109375 -1.421875 9.34375 4.171875 
Q 4.59375 9.765625 4.59375 19.484375 
Q 4.59375 27.59375 7.46875 34.9375 
Q 10.359375 42.28125 15.828125 48.09375 
Q 19.4375 51.953125 23.96875 53.96875 
Q 28.515625 56 33.5 56 
Q 38.765625 56 42.796875 53.453125 
Q 46.828125 50.921875 49.03125 46.1875 
L 54.890625 75.984375 
L 63.921875 75.984375 
L 49.125 0 
L 40.09375 0 
z
M 13.921875 21.09375 
Q 13.921875 14.015625 17.109375 10.0625 
Q 20.3125 6.109375 25.984375 6.109375 
Q 30.171875 6.109375 33.765625 8.125 
Q 37.359375 10.15625 40.09375 14.109375 
Q 42.96875 18.21875 44.625 23.578125 
Q 46.296875 28.953125 46.296875 34.1875 
Q 46.296875 40.96875 43.09375 44.765625 
Q 39.890625 48.578125 34.28125 48.578125 
Q 30.03125 48.578125 26.359375 46.578125 
Q 22.703125 44.578125 20.125 40.828125 
Q 17.28125 36.765625 15.59375 31.390625 
Q 13.921875 26.03125 13.921875 21.09375 
z
" id="DejaVuSans-Oblique-100"/>
      <path d="M 48.09375 32.234375 
Q 48.25 33.015625 48.3125 33.84375 
Q 48.390625 34.671875 48.390625 35.5 
Q 48.390625 41.453125 44.890625 44.921875 
Q 41.40625 48.390625 35.40625 48.390625 
Q 28.71875 48.390625 23.578125 44.15625 
Q 18.453125 39.9375 15.828125 32.171875 
z
M 55.90625 25.203125 
L 14.109375 25.203125 
Q 13.8125 23.34375 13.71875 22.265625 
Q 13.625 21.1875 13.625 20.40625 
Q 13.625 13.625 17.796875 9.90625 
Q 21.96875 6.203125 29.59375 6.203125 
Q 35.453125 6.203125 40.671875 7.515625 
Q 45.90625 8.84375 50.390625 11.375 
L 48.6875 2.484375 
Q 43.84375 0.53125 38.6875 -0.4375 
Q 33.546875 -1.421875 28.21875 -1.421875 
Q 16.84375 -1.421875 10.71875 4.015625 
Q 4.59375 9.46875 4.59375 19.484375 
Q 4.59375 28.03125 7.640625 35.375 
Q 10.6875 42.71875 16.609375 48.484375 
Q 20.40625 52.09375 25.65625 54.046875 
Q 30.90625 56 36.8125 56 
Q 46.09375 56 51.578125 50.4375 
Q 57.078125 44.875 57.078125 35.5 
Q 57.078125 33.25 56.78125 30.6875 
Q 56.5 28.125 55.90625 25.203125 
z
" id="DejaVuSans-Oblique-101"/>
      <path d="M 50 53.078125 
L 48.296875 44.578125 
Q 44.734375 46.53125 40.765625 47.5 
Q 36.8125 48.484375 32.625 48.484375 
Q 25.53125 48.484375 21.453125 46.0625 
Q 17.390625 43.65625 17.390625 39.5 
Q 17.390625 34.671875 26.859375 32.078125 
Q 27.59375 31.890625 27.9375 31.78125 
L 30.8125 30.90625 
Q 39.796875 28.421875 42.796875 25.6875 
Q 45.796875 22.953125 45.796875 18.21875 
Q 45.796875 9.515625 38.890625 4.046875 
Q 31.984375 -1.421875 20.796875 -1.421875 
Q 16.453125 -1.421875 11.671875 -0.578125 
Q 6.890625 0.25 1.125 2 
L 2.875 11.28125 
Q 7.8125 8.734375 12.59375 7.421875 
Q 17.390625 6.109375 21.78125 6.109375 
Q 28.375 6.109375 32.5 8.9375 
Q 36.625 11.765625 36.625 16.109375 
Q 36.625 20.796875 25.78125 23.6875 
L 24.859375 23.921875 
L 21.78125 24.703125 
Q 14.9375 26.515625 11.765625 29.46875 
Q 8.59375 32.421875 8.59375 37.015625 
Q 8.59375 45.75 15.15625 50.875 
Q 21.734375 56 33.015625 56 
Q 37.453125 56 41.671875 55.265625 
Q 45.90625 54.546875 50 53.078125 
z
" id="DejaVuSans-Oblique-115"/>
      <path d="M 18.3125 75.984375 
L 27.296875 75.984375 
L 18.703125 31.6875 
L 49.515625 54.6875 
L 61.1875 54.6875 
L 26.8125 28.515625 
L 51.90625 0 
L 41.015625 0 
L 17.671875 26.703125 
L 12.5 0 
L 3.515625 0 
z
" id="DejaVuSans-Oblique-107"/>
     </defs>
     <g transform="translate(208.928125 256.715781)scale(0.1 -0.1)">
      <use transform="translate(0 0.015625)" xlink:href="#DejaVuSans-Oblique-100"/>
      <use transform="translate(63.476562 0.015625)" xlink:href="#DejaVuSans-Oblique-101"/>
      <use transform="translate(125 0.015625)" xlink:href="#DejaVuSans-Oblique-115"/>
      <use transform="translate(177.099609 0.015625)" xlink:href="#DejaVuSans-Oblique-107"/>
     </g>
    </g>
   </g>
   <g id="matplotlib.axis_2">
    <g id="ytick_1">
     <g id="line2d_7">
      <defs>
       <path d="M 0 0 
L -3.5 0 
" id="mddec22f35f" style="stroke:#000000;stroke-width:0.8;"/>
      </defs>
      <g>
       <use style="stroke:#000000;stroke-width:0.8;" x="53.328125" xlink:href="#mddec22f35f" y="228.439219"/>
      </g>
     </g>
     <g id="text_8">
      <!-- 0 -->
      <g transform="translate(39.965625 232.238437)scale(0.1 -0.1)">
       <use xlink:href="#DejaVuSans-48"/>
      </g>
     </g>
    </g>
    <g id="ytick_2">
     <g id="line2d_8">
      <g>
       <use style="stroke:#000000;stroke-width:0.8;" x="53.328125" xlink:href="#mddec22f35f" y="184.951219"/>
      </g>
     </g>
     <g id="text_9">
      <!-- 200 -->
      <g transform="translate(27.240625 188.750437)scale(0.1 -0.1)">
       <use xlink:href="#DejaVuSans-50"/>
       <use x="63.623047" xlink:href="#DejaVuSans-48"/>
       <use x="127.246094" xlink:href="#DejaVuSans-48"/>
      </g>
     </g>
    </g>
    <g id="ytick_3">
     <g id="line2d_9">
      <g>
       <use style="stroke:#000000;stroke-width:0.8;" x="53.328125" xlink:href="#mddec22f35f" y="141.463219"/>
      </g>
     </g>
     <g id="text_10">
      <!-- 400 -->
      <g transform="translate(27.240625 145.262437)scale(0.1 -0.1)">
       <use xlink:href="#DejaVuSans-52"/>
       <use x="63.623047" xlink:href="#DejaVuSans-48"/>
       <use x="127.246094" xlink:href="#DejaVuSans-48"/>
      </g>
     </g>
    </g>
    <g id="ytick_4">
     <g id="line2d_10">
      <g>
       <use style="stroke:#000000;stroke-width:0.8;" x="53.328125" xlink:href="#mddec22f35f" y="97.975219"/>
      </g>
     </g>
     <g id="text_11">
      <!-- 600 -->
      <g transform="translate(27.240625 101.774437)scale(0.1 -0.1)">
       <use xlink:href="#DejaVuSans-54"/>
       <use x="63.623047" xlink:href="#DejaVuSans-48"/>
       <use x="127.246094" xlink:href="#DejaVuSans-48"/>
      </g>
     </g>
    </g>
    <g id="ytick_5">
     <g id="line2d_11">
      <g>
       <use style="stroke:#000000;stroke-width:0.8;" x="53.328125" xlink:href="#mddec22f35f" y="54.487219"/>
      </g>
     </g>
     <g id="text_12">
      <!-- 800 -->
      <g transform="translate(27.240625 58.286437)scale(0.1 -0.1)">
       <use xlink:href="#DejaVuSans-56"/>
       <use x="63.623047" xlink:href="#DejaVuSans-48"/>
       <use x="127.246094" xlink:href="#DejaVuSans-48"/>
      </g>
     </g>
    </g>
    <g id="ytick_6">
     <g id="line2d_12">
      <g>
       <use style="stroke:#000000;stroke-width:0.8;" x="53.328125" xlink:href="#mddec22f35f" y="10.999219"/>
      </g>
     </g>
     <g id="text_13">
      <!-- 1000 -->
      <g transform="translate(20.878125 14.798437)scale(0.1 -0.1)">
       <use xlink:href="#DejaVuSans-49"/>
       <use x="63.623047" xlink:href="#DejaVuSans-48"/>
       <use x="127.246094" xlink:href="#DejaVuSans-48"/>
       <use x="190.869141" xlink:href="#DejaVuSans-48"/>
      </g>
     </g>
    </g>
    <g id="text_14">
     <!-- $cell$ -->
     <defs>
      <path d="M 53.609375 52.59375 
L 51.8125 43.703125 
Q 48.578125 46.046875 44.9375 47.21875 
Q 41.3125 48.390625 37.40625 48.390625 
Q 33.109375 48.390625 29.21875 46.875 
Q 25.34375 45.359375 22.703125 42.578125 
Q 18.5 38.328125 16.203125 32.609375 
Q 13.921875 26.90625 13.921875 20.796875 
Q 13.921875 13.421875 17.609375 9.8125 
Q 21.296875 6.203125 28.8125 6.203125 
Q 32.515625 6.203125 36.6875 7.328125 
Q 40.875 8.453125 45.40625 10.6875 
L 43.703125 1.8125 
Q 39.796875 0.203125 35.671875 -0.609375 
Q 31.546875 -1.421875 27.203125 -1.421875 
Q 16.3125 -1.421875 10.453125 4.015625 
Q 4.59375 9.46875 4.59375 19.578125 
Q 4.59375 28.078125 7.640625 35.234375 
Q 10.6875 42.390625 16.703125 48.09375 
Q 20.796875 52 26.3125 54 
Q 31.84375 56 38.375 56 
Q 42.1875 56 45.9375 55.140625 
Q 49.703125 54.296875 53.609375 52.59375 
z
" id="DejaVuSans-Oblique-99"/>
      <path d="M 18.3125 75.984375 
L 27.296875 75.984375 
L 12.5 0 
L 3.515625 0 
z
" id="DejaVuSans-Oblique-108"/>
     </defs>
     <g transform="translate(14.798438 128.369219)rotate(-90)scale(0.1 -0.1)">
      <use transform="translate(0 0.015625)" xlink:href="#DejaVuSans-Oblique-99"/>
      <use transform="translate(54.980469 0.015625)" xlink:href="#DejaVuSans-Oblique-101"/>
      <use transform="translate(116.503906 0.015625)" xlink:href="#DejaVuSans-Oblique-108"/>
      <use transform="translate(144.287109 0.015625)" xlink:href="#DejaVuSans-Oblique-108"/>
     </g>
    </g>
   </g>
   <g id="line2d_13">
    <path clip-path="url(#pebd5f748b8)" d="M 86.808125 206.695219 
L 92.957513 206.695219 
L 99.106901 206.695219 
L 105.256288 206.695219 
L 111.405676 206.695219 
L 117.555064 206.695219 
L 123.704452 206.695219 
L 129.853839 206.695219 
L 136.003227 206.695219 
L 142.152615 206.695219 
L 148.302003 206.695219 
L 154.45139 206.695219 
L 160.600778 206.695219 
L 166.750166 206.695219 
L 172.899554 206.695219 
L 179.048941 206.695219 
L 185.198329 206.695219 
L 191.347717 206.695219 
L 197.497105 206.695219 
L 203.646492 206.695219 
L 209.79588 206.695219 
L 215.945268 206.695219 
L 222.094656 206.695219 
L 228.244043 206.695219 
L 234.393431 206.695219 
L 240.542819 206.695219 
L 246.692207 206.695219 
L 252.841594 206.695219 
L 258.990982 206.695219 
L 265.14037 206.695219 
L 271.289758 206.695219 
L 277.439145 206.695219 
L 283.588533 206.695219 
L 289.737921 206.695219 
L 295.887309 206.695219 
L 302.036696 206.695219 
L 308.186084 206.695219 
L 314.335472 206.695219 
L 320.48486 206.695219 
L 326.634247 206.695219 
L 332.783635 206.695219 
L 338.933023 206.695219 
L 345.082411 206.695219 
L 351.231798 206.695219 
L 357.381186 206.695219 
L 363.530574 206.695219 
L 369.679962 206.695219 
L 375.829349 206.695219 
L 381.978737 206.695219 
L 388.128125 206.695219 
" style="fill:none;stroke:#1f77b4;stroke-linecap:square;stroke-width:1.5;"/>
   </g>
   <g id="line2d_14">
    <path clip-path="url(#pebd5f748b8)" d="M 86.808125 206.695219 
L 86.808125 202.701423 
L 86.808125 198.707627 
L 86.808125 194.713831 
L 86.808125 190.720035 
L 86.808125 186.726239 
L 86.808125 182.732443 
L 86.808125 178.738647 
L 86.808125 174.744851 
L 86.808125 170.751055 
L 86.808125 166.75726 
L 86.808125 162.763464 
L 86.808125 158.769668 
L 86.808125 154.775872 
L 86.808125 150.782076 
L 86.808125 146.78828 
L 86.808125 142.794484 
L 86.808125 138.800688 
L 86.808125 134.806892 
L 86.808125 130.813096 
L 86.808125 126.8193 
L 86.808125 122.825504 
L 86.808125 118.831709 
L 86.808125 114.837913 
L 86.808125 110.844117 
L 86.808125 106.850321 
L 86.808125 102.856525 
L 86.808125 98.862729 
L 86.808125 94.868933 
L 86.808125 90.875137 
L 86.808125 86.881341 
L 86.808125 82.887545 
L 86.808125 78.893749 
L 86.808125 74.899953 
L 86.808125 70.906158 
L 86.808125 66.912362 
L 86.808125 62.918566 
L 86.808125 58.92477 
L 86.808125 54.930974 
L 86.808125 50.937178 
L 86.808125 46.943382 
L 86.808125 42.949586 
L 86.808125 38.95579 
L 86.808125 34.961994 
L 86.808125 30.968198 
L 86.808125 26.974402 
L 86.808125 22.980607 
L 86.808125 18.986811 
L 86.808125 14.993015 
L 86.808125 10.999219 
" style="fill:none;stroke:#ff7f0e;stroke-linecap:square;stroke-width:1.5;"/>
   </g>
   <g id="line2d_15">
    <path clip-path="url(#pebd5f748b8)" d="M 86.808125 21.871219 
L 92.957513 23.868117 
L 99.106901 25.865015 
L 105.256288 27.861913 
L 111.405676 29.858811 
L 117.555064 31.855709 
L 123.704452 33.852607 
L 129.853839 35.849504 
L 136.003227 37.846402 
L 142.152615 39.8433 
L 148.302003 41.840198 
L 154.45139 43.837096 
L 160.600778 45.833994 
L 166.750166 47.830892 
L 172.899554 49.82779 
L 179.048941 51.824688 
L 185.198329 53.821586 
L 191.347717 55.818484 
L 197.497105 57.815382 
L 203.646492 59.81228 
L 209.79588 61.809178 
L 215.945268 63.806076 
L 222.094656 65.802974 
L 228.244043 67.799872 
L 234.393431 69.79677 
L 240.542819 71.793668 
L 246.692207 73.790566 
L 252.841594 75.787464 
L 258.990982 77.784362 
L 265.14037 79.78126 
L 271.289758 81.778158 
L 277.439145 83.775055 
L 283.588533 85.771953 
L 289.737921 87.768851 
L 295.887309 89.765749 
L 302.036696 91.762647 
L 308.186084 93.759545 
L 314.335472 95.756443 
L 320.48486 97.753341 
L 326.634247 99.750239 
L 332.783635 101.747137 
L 338.933023 103.744035 
L 345.082411 105.740933 
L 351.231798 107.737831 
L 357.381186 109.734729 
L 363.530574 111.731627 
L 369.679962 113.728525 
L 375.829349 115.725423 
L 381.978737 117.722321 
L 388.128125 119.719219 
" style="fill:none;stroke:#2ca02c;stroke-linecap:square;stroke-width:1.5;"/>
   </g>
   <g id="line2d_16">
    <path clip-path="url(#pebd5f748b8)" d="M 98.81163 -1 
L 99.106901 -0.760291 
L 105.256288 4.231953 
L 111.405676 9.224198 
L 117.555064 14.216443 
L 123.704452 19.208688 
L 129.853839 24.200933 
L 136.003227 29.193178 
L 142.152615 34.185423 
L 148.302003 39.177668 
L 154.45139 44.169913 
L 160.600778 49.162158 
L 166.750166 54.154402 
L 172.899554 59.146647 
L 179.048941 64.138892 
L 185.198329 69.131137 
L 191.347717 74.123382 
L 197.497105 79.115627 
L 203.646492 84.107872 
L 209.79588 89.100117 
L 215.945268 94.092362 
L 222.094656 99.084607 
L 228.244043 104.076851 
L 234.393431 109.069096 
L 240.542819 114.061341 
L 246.692207 119.053586 
L 252.841594 124.045831 
L 258.990982 129.038076 
L 265.14037 134.030321 
L 271.289758 139.022566 
L 277.439145 144.014811 
L 283.588533 149.007055 
L 289.737921 153.9993 
L 295.887309 158.991545 
L 302.036696 163.98379 
L 308.186084 168.976035 
L 314.335472 173.96828 
L 320.48486 178.960525 
L 326.634247 183.95277 
L 332.783635 188.945015 
L 338.933023 193.93726 
L 345.082411 198.929504 
L 351.231798 203.921749 
L 357.381186 208.913994 
L 363.530574 213.906239 
L 369.679962 218.898484 
L 375.829349 223.890729 
L 381.978737 228.882974 
L 388.128125 233.875219 
" style="fill:none;stroke:#d62728;stroke-linecap:square;stroke-width:1.5;"/>
   </g>
   <g id="patch_3">
    <path d="M 53.328125 228.439219 
L 53.328125 10.999219 
" style="fill:none;stroke:#000000;stroke-linecap:square;stroke-linejoin:miter;stroke-width:0.8;"/>
   </g>
   <g id="patch_4">
    <path d="M 388.128125 228.439219 
L 388.128125 10.999219 
" style="fill:none;stroke:#000000;stroke-linecap:square;stroke-linejoin:miter;stroke-width:0.8;"/>
   </g>
   <g id="patch_5">
    <path d="M 53.328125 228.439219 
L 388.128125 228.439219 
" style="fill:none;stroke:#000000;stroke-linecap:square;stroke-linejoin:miter;stroke-width:0.8;"/>
   </g>
   <g id="patch_6">
    <path d="M 53.328125 10.999219 
L 388.128125 10.999219 
" style="fill:none;stroke:#000000;stroke-linecap:square;stroke-linejoin:miter;stroke-width:0.8;"/>
   </g>
   <g id="legend_1">
    <g id="patch_7">
     <path d="M 406.868125 72.711719 
L 585.168125 72.711719 
Q 587.168125 72.711719 587.168125 70.711719 
L 587.168125 12.999219 
Q 587.168125 10.999219 585.168125 10.999219 
L 406.868125 10.999219 
Q 404.868125 10.999219 404.868125 12.999219 
L 404.868125 70.711719 
Q 404.868125 72.711719 406.868125 72.711719 
z
" style="fill:#ffffff;opacity:0.8;stroke:#cccccc;stroke-linejoin:miter;"/>
    </g>
    <g id="line2d_17">
     <path d="M 408.868125 19.097656 
L 428.868125 19.097656 
" style="fill:none;stroke:#1f77b4;stroke-linecap:square;stroke-width:1.5;"/>
    </g>
    <g id="line2d_18"/>
    <g id="text_15">
     <!-- $cell&gt;=100$ -->
     <defs>
      <path d="M 10.59375 49.21875 
L 10.59375 58.109375 
L 73.1875 35.40625 
L 73.1875 27.296875 
L 10.59375 4.59375 
L 10.59375 13.484375 
L 60.890625 31.296875 
z
" id="DejaVuSans-62"/>
      <path d="M 10.59375 45.40625 
L 73.1875 45.40625 
L 73.1875 37.203125 
L 10.59375 37.203125 
z
M 10.59375 25.484375 
L 73.1875 25.484375 
L 73.1875 17.1875 
L 10.59375 17.1875 
z
" id="DejaVuSans-61"/>
     </defs>
     <g transform="translate(436.868125 22.597656)scale(0.1 -0.1)">
      <use transform="translate(0 0.015625)" xlink:href="#DejaVuSans-Oblique-99"/>
      <use transform="translate(54.980469 0.015625)" xlink:href="#DejaVuSans-Oblique-101"/>
      <use transform="translate(116.503906 0.015625)" xlink:href="#DejaVuSans-Oblique-108"/>
      <use transform="translate(144.287109 0.015625)" xlink:href="#DejaVuSans-Oblique-108"/>
      <use transform="translate(191.552734 0.015625)" xlink:href="#DejaVuSans-62"/>
      <use transform="translate(314.306641 0.015625)" xlink:href="#DejaVuSans-61"/>
      <use transform="translate(417.578125 0.015625)" xlink:href="#DejaVuSans-49"/>
      <use transform="translate(481.201172 0.015625)" xlink:href="#DejaVuSans-48"/>
      <use transform="translate(544.824219 0.015625)" xlink:href="#DejaVuSans-48"/>
     </g>
    </g>
    <g id="line2d_19">
     <path d="M 408.868125 33.775781 
L 428.868125 33.775781 
" style="fill:none;stroke:#ff7f0e;stroke-linecap:square;stroke-width:1.5;"/>
    </g>
    <g id="line2d_20"/>
    <g id="text_16">
     <!-- $desk&gt;=100$ -->
     <g transform="translate(436.868125 37.275781)scale(0.1 -0.1)">
      <use transform="translate(0 0.015625)" xlink:href="#DejaVuSans-Oblique-100"/>
      <use transform="translate(63.476562 0.015625)" xlink:href="#DejaVuSans-Oblique-101"/>
      <use transform="translate(125 0.015625)" xlink:href="#DejaVuSans-Oblique-115"/>
      <use transform="translate(177.099609 0.015625)" xlink:href="#DejaVuSans-Oblique-107"/>
      <use transform="translate(254.492188 0.015625)" xlink:href="#DejaVuSans-62"/>
      <use transform="translate(377.246094 0.015625)" xlink:href="#DejaVuSans-61"/>
      <use transform="translate(480.517578 0.015625)" xlink:href="#DejaVuSans-49"/>
      <use transform="translate(544.140625 0.015625)" xlink:href="#DejaVuSans-48"/>
      <use transform="translate(607.763672 0.015625)" xlink:href="#DejaVuSans-48"/>
     </g>
    </g>
    <g id="line2d_21">
     <path d="M 408.868125 48.453906 
L 428.868125 48.453906 
" style="fill:none;stroke:#2ca02c;stroke-linecap:square;stroke-width:1.5;"/>
    </g>
    <g id="line2d_22"/>
    <g id="text_17">
     <!-- $0.2*desk + 0.4*cell &lt;= 400$ -->
     <defs>
      <path d="M 10.6875 12.40625 
L 21 12.40625 
L 21 0 
L 10.6875 0 
z
" id="DejaVuSans-46"/>
      <path d="M 47.015625 60.890625 
L 29.5 51.421875 
L 47.015625 41.890625 
L 44.1875 37.109375 
L 27.78125 47.015625 
L 27.78125 28.609375 
L 22.21875 28.609375 
L 22.21875 47.015625 
L 5.8125 37.109375 
L 2.984375 41.890625 
L 20.515625 51.421875 
L 2.984375 60.890625 
L 5.8125 65.71875 
L 22.21875 55.8125 
L 22.21875 74.21875 
L 27.78125 74.21875 
L 27.78125 55.8125 
L 44.1875 65.71875 
z
" id="DejaVuSans-42"/>
      <path d="M 46 62.703125 
L 46 35.5 
L 73.1875 35.5 
L 73.1875 27.203125 
L 46 27.203125 
L 46 0 
L 37.796875 0 
L 37.796875 27.203125 
L 10.59375 27.203125 
L 10.59375 35.5 
L 37.796875 35.5 
L 37.796875 62.703125 
z
" id="DejaVuSans-43"/>
      <path d="M 73.1875 49.21875 
L 22.796875 31.296875 
L 73.1875 13.484375 
L 73.1875 4.59375 
L 10.59375 27.296875 
L 10.59375 35.40625 
L 73.1875 58.109375 
z
" id="DejaVuSans-60"/>
     </defs>
     <g transform="translate(436.868125 51.953906)scale(0.1 -0.1)">
      <use transform="translate(0 0.015625)" xlink:href="#DejaVuSans-48"/>
      <use transform="translate(63.623047 0.015625)" xlink:href="#DejaVuSans-46"/>
      <use transform="translate(95.332031 0.015625)" xlink:href="#DejaVuSans-50"/>
      <use transform="translate(178.4375 0.015625)" xlink:href="#DejaVuSans-42"/>
      <use transform="translate(247.919922 0.015625)" xlink:href="#DejaVuSans-Oblique-100"/>
      <use transform="translate(311.396484 0.015625)" xlink:href="#DejaVuSans-Oblique-101"/>
      <use transform="translate(372.919922 0.015625)" xlink:href="#DejaVuSans-Oblique-115"/>
      <use transform="translate(425.019531 0.015625)" xlink:href="#DejaVuSans-Oblique-107"/>
      <use transform="translate(502.412109 0.015625)" xlink:href="#DejaVuSans-43"/>
      <use transform="translate(605.683594 0.015625)" xlink:href="#DejaVuSans-48"/>
      <use transform="translate(669.306641 0.015625)" xlink:href="#DejaVuSans-46"/>
      <use transform="translate(701.09375 0.015625)" xlink:href="#DejaVuSans-52"/>
      <use transform="translate(784.199219 0.015625)" xlink:href="#DejaVuSans-42"/>
      <use transform="translate(853.681641 0.015625)" xlink:href="#DejaVuSans-Oblique-99"/>
      <use transform="translate(908.662109 0.015625)" xlink:href="#DejaVuSans-Oblique-101"/>
      <use transform="translate(970.185547 0.015625)" xlink:href="#DejaVuSans-Oblique-108"/>
      <use transform="translate(997.96875 0.015625)" xlink:href="#DejaVuSans-Oblique-108"/>
      <use transform="translate(1045.234375 0.015625)" xlink:href="#DejaVuSans-60"/>
      <use transform="translate(1167.988281 0.015625)" xlink:href="#DejaVuSans-61"/>
      <use transform="translate(1271.259766 0.015625)" xlink:href="#DejaVuSans-52"/>
      <use transform="translate(1334.882812 0.015625)" xlink:href="#DejaVuSans-48"/>
      <use transform="translate(1398.505859 0.015625)" xlink:href="#DejaVuSans-48"/>
     </g>
    </g>
    <g id="line2d_23">
     <path d="M 408.868125 63.132031 
L 428.868125 63.132031 
" style="fill:none;stroke:#d62728;stroke-linecap:square;stroke-width:1.5;"/>
    </g>
    <g id="line2d_24"/>
    <g id="text_18">
     <!-- $0.5*desk + 0.4*cell &lt;= 490$ -->
     <defs>
      <path d="M 10.796875 72.90625 
L 49.515625 72.90625 
L 49.515625 64.59375 
L 19.828125 64.59375 
L 19.828125 46.734375 
Q 21.96875 47.46875 24.109375 47.828125 
Q 26.265625 48.1875 28.421875 48.1875 
Q 40.625 48.1875 47.75 41.5 
Q 54.890625 34.8125 54.890625 23.390625 
Q 54.890625 11.625 47.5625 5.09375 
Q 40.234375 -1.421875 26.90625 -1.421875 
Q 22.3125 -1.421875 17.546875 -0.640625 
Q 12.796875 0.140625 7.71875 1.703125 
L 7.71875 11.625 
Q 12.109375 9.234375 16.796875 8.0625 
Q 21.484375 6.890625 26.703125 6.890625 
Q 35.15625 6.890625 40.078125 11.328125 
Q 45.015625 15.765625 45.015625 23.390625 
Q 45.015625 31 40.078125 35.4375 
Q 35.15625 39.890625 26.703125 39.890625 
Q 22.75 39.890625 18.8125 39.015625 
Q 14.890625 38.140625 10.796875 36.28125 
z
" id="DejaVuSans-53"/>
      <path d="M 10.984375 1.515625 
L 10.984375 10.5 
Q 14.703125 8.734375 18.5 7.8125 
Q 22.3125 6.890625 25.984375 6.890625 
Q 35.75 6.890625 40.890625 13.453125 
Q 46.046875 20.015625 46.78125 33.40625 
Q 43.953125 29.203125 39.59375 26.953125 
Q 35.25 24.703125 29.984375 24.703125 
Q 19.046875 24.703125 12.671875 31.3125 
Q 6.296875 37.9375 6.296875 49.421875 
Q 6.296875 60.640625 12.9375 67.421875 
Q 19.578125 74.21875 30.609375 74.21875 
Q 43.265625 74.21875 49.921875 64.515625 
Q 56.59375 54.828125 56.59375 36.375 
Q 56.59375 19.140625 48.40625 8.859375 
Q 40.234375 -1.421875 26.421875 -1.421875 
Q 22.703125 -1.421875 18.890625 -0.6875 
Q 15.09375 0.046875 10.984375 1.515625 
z
M 30.609375 32.421875 
Q 37.25 32.421875 41.125 36.953125 
Q 45.015625 41.5 45.015625 49.421875 
Q 45.015625 57.28125 41.125 61.84375 
Q 37.25 66.40625 30.609375 66.40625 
Q 23.96875 66.40625 20.09375 61.84375 
Q 16.21875 57.28125 16.21875 49.421875 
Q 16.21875 41.5 20.09375 36.953125 
Q 23.96875 32.421875 30.609375 32.421875 
z
" id="DejaVuSans-57"/>
     </defs>
     <g transform="translate(436.868125 66.632031)scale(0.1 -0.1)">
      <use transform="translate(0 0.015625)" xlink:href="#DejaVuSans-48"/>
      <use transform="translate(63.623047 0.015625)" xlink:href="#DejaVuSans-46"/>
      <use transform="translate(95.410156 0.015625)" xlink:href="#DejaVuSans-53"/>
      <use transform="translate(178.515625 0.015625)" xlink:href="#DejaVuSans-42"/>
      <use transform="translate(247.998047 0.015625)" xlink:href="#DejaVuSans-Oblique-100"/>
      <use transform="translate(311.474609 0.015625)" xlink:href="#DejaVuSans-Oblique-101"/>
      <use transform="translate(372.998047 0.015625)" xlink:href="#DejaVuSans-Oblique-115"/>
      <use transform="translate(425.097656 0.015625)" xlink:href="#DejaVuSans-Oblique-107"/>
      <use transform="translate(502.490234 0.015625)" xlink:href="#DejaVuSans-43"/>
      <use transform="translate(605.761719 0.015625)" xlink:href="#DejaVuSans-48"/>
      <use transform="translate(669.384766 0.015625)" xlink:href="#DejaVuSans-46"/>
      <use transform="translate(701.171875 0.015625)" xlink:href="#DejaVuSans-52"/>
      <use transform="translate(784.277344 0.015625)" xlink:href="#DejaVuSans-42"/>
      <use transform="translate(853.759766 0.015625)" xlink:href="#DejaVuSans-Oblique-99"/>
      <use transform="translate(908.740234 0.015625)" xlink:href="#DejaVuSans-Oblique-101"/>
      <use transform="translate(970.263672 0.015625)" xlink:href="#DejaVuSans-Oblique-108"/>
      <use transform="translate(998.046875 0.015625)" xlink:href="#DejaVuSans-Oblique-108"/>
      <use transform="translate(1045.3125 0.015625)" xlink:href="#DejaVuSans-60"/>
      <use transform="translate(1168.066406 0.015625)" xlink:href="#DejaVuSans-61"/>
      <use transform="translate(1271.337891 0.015625)" xlink:href="#DejaVuSans-52"/>
      <use transform="translate(1334.960938 0.015625)" xlink:href="#DejaVuSans-57"/>
      <use transform="translate(1398.583984 0.015625)" xlink:href="#DejaVuSans-48"/>
     </g>
    </g>
   </g>
  </g>
 </g>
 <defs>
  <clipPath id="pebd5f748b8">
   <rect height="217.44" width="334.8" x="53.328125" y="10.999219"/>
  </clipPath>
 </defs>
</svg>
